<svg width="15" height="15" viewBox="0 0 15 15" fill="none" xmlns="http://www.w3.org/2000/svg">
<path d="M4.25933 0.555556C4.25933 0.408213 4.2008 0.266905 4.09662 0.162718C3.99243 0.0585316 3.85112 0 3.70378 0C3.55644 0 3.41513 0.0585316 3.31094 0.162718C3.20675 0.266905 3.14822 0.408213 3.14822 0.555556V1.72593C2.08156 1.81111 1.3823 2.02 0.868223 2.53481C0.353409 3.04889 0.14452 3.74889 0.0585938 4.81482H14.7564C14.6704 3.74815 14.4616 3.04889 13.9467 2.53481C13.4327 2.02 12.7327 1.81111 11.6667 1.72519V0.555556C11.6667 0.408213 11.6082 0.266905 11.504 0.162718C11.3998 0.0585316 11.2585 0 11.1112 0C10.9638 0 10.8225 0.0585316 10.7183 0.162718C10.6142 0.266905 10.5556 0.408213 10.5556 0.555556V1.6763C10.063 1.66667 9.51044 1.66667 8.88896 1.66667H5.926C5.30452 1.66667 4.75193 1.66667 4.25933 1.6763V0.555556Z" fill="#EA571E"/>
<path fill-rule="evenodd" clip-rule="evenodd" d="M0 7.59257C0 6.97109 8.27842e-09 6.4185 0.00962964 5.9259H14.8052C14.8148 6.4185 14.8148 6.97109 14.8148 7.59257V9.07405C14.8148 11.8674 14.8148 13.2644 13.9467 14.1318C13.0785 14.9992 11.6822 15 8.88889 15H5.92593C3.13259 15 1.73556 15 0.868148 14.1318C0.000740687 13.2637 0 11.8674 0 9.07405V7.59257ZM11.1111 9.07405C11.3076 9.07405 11.496 8.99601 11.6349 8.85709C11.7738 8.71818 11.8519 8.52977 11.8519 8.33331C11.8519 8.13685 11.7738 7.94844 11.6349 7.80953C11.496 7.67061 11.3076 7.59257 11.1111 7.59257C10.9147 7.59257 10.7262 7.67061 10.5873 7.80953C10.4484 7.94844 10.3704 8.13685 10.3704 8.33331C10.3704 8.52977 10.4484 8.71818 10.5873 8.85709C10.7262 8.99601 10.9147 9.07405 11.1111 9.07405ZM11.1111 12.037C11.3076 12.037 11.496 11.959 11.6349 11.8201C11.7738 11.6811 11.8519 11.4927 11.8519 11.2963C11.8519 11.0998 11.7738 10.9114 11.6349 10.7725C11.496 10.6336 11.3076 10.5555 11.1111 10.5555C10.9147 10.5555 10.7262 10.6336 10.5873 10.7725C10.4484 10.9114 10.3704 11.0998 10.3704 11.2963C10.3704 11.4927 10.4484 11.6811 10.5873 11.8201C10.7262 11.959 10.9147 12.037 11.1111 12.037ZM8.14815 8.33331C8.14815 8.52977 8.07011 8.71818 7.93119 8.85709C7.79227 8.99601 7.60386 9.07405 7.40741 9.07405C7.21095 9.07405 7.02254 8.99601 6.88362 8.85709C6.74471 8.71818 6.66667 8.52977 6.66667 8.33331C6.66667 8.13685 6.74471 7.94844 6.88362 7.80953C7.02254 7.67061 7.21095 7.59257 7.40741 7.59257C7.60386 7.59257 7.79227 7.67061 7.93119 7.80953C8.07011 7.94844 8.14815 8.13685 8.14815 8.33331ZM8.14815 11.2963C8.14815 11.4927 8.07011 11.6811 7.93119 11.8201C7.79227 11.959 7.60386 12.037 7.40741 12.037C7.21095 12.037 7.02254 11.959 6.88362 11.8201C6.74471 11.6811 6.66667 11.4927 6.66667 11.2963C6.66667 11.0998 6.74471 10.9114 6.88362 10.7725C7.02254 10.6336 7.21095 10.5555 7.40741 10.5555C7.60386 10.5555 7.79227 10.6336 7.93119 10.7725C8.07011 10.9114 8.14815 11.0998 8.14815 11.2963ZM3.7037 9.07405C3.90016 9.07405 4.08857 8.99601 4.22749 8.85709C4.3664 8.71818 4.44444 8.52977 4.44444 8.33331C4.44444 8.13685 4.3664 7.94844 4.22749 7.80953C4.08857 7.67061 3.90016 7.59257 3.7037 7.59257C3.50725 7.59257 3.31884 7.67061 3.17992 7.80953C3.04101 7.94844 2.96296 8.13685 2.96296 8.33331C2.96296 8.52977 3.04101 8.71818 3.17992 8.85709C3.31884 8.99601 3.50725 9.07405 3.7037 9.07405ZM3.7037 12.037C3.90016 12.037 4.08857 11.959 4.22749 11.8201C4.3664 11.6811 4.44444 11.4927 4.44444 11.2963C4.44444 11.0998 4.3664 10.9114 4.22749 10.7725C4.08857 10.6336 3.90016 10.5555 3.7037 10.5555C3.50725 10.5555 3.31884 10.6336 3.17992 10.7725C3.04101 10.9114 2.96296 11.0998 2.96296 11.2963C2.96296 11.4927 3.04101 11.6811 3.17992 11.8201C3.31884 11.959 3.50725 12.037 3.7037 12.037Z" fill="#EA571E"/>
</svg>
