<svg width="52" height="66" viewBox="0 0 52 66" fill="none" xmlns="http://www.w3.org/2000/svg">
<path d="M16.6381 65.92C12.1048 65.92 8.63813 65.0934 6.23813 63.44C3.83813 61.7867 2.1848 59.4667 1.27813 56.48C0.424797 53.4934 -0.00186938 50 -0.00186938 46H11.9181C11.9181 48.3467 12.0515 50.32 12.3181 51.92C12.6381 53.52 13.1715 54.72 13.9181 55.52C14.7181 56.32 15.8915 56.6934 17.4381 56.64C18.9848 56.5867 20.1048 56 20.7981 54.88C21.4915 53.76 21.9181 52.16 22.0781 50.08C22.2381 48 22.3181 45.5467 22.3181 42.72C22.3181 40.4267 22.1848 38.4 21.9181 36.64C21.6515 34.88 21.1181 33.4934 20.3181 32.48C19.5715 31.4667 18.3981 30.96 16.7981 30.96C15.3581 30.96 14.1581 31.4667 13.1981 32.48C12.2915 33.4934 11.6248 34.9334 11.1981 36.8H0.63813L1.51813 4.3869e-05H31.2781V10.64H11.6781L10.9581 24.96C11.5981 24.16 12.6648 23.4667 14.1581 22.88C15.7048 22.2934 17.3581 21.9467 19.1181 21.84C22.4781 21.52 25.2515 22.16 27.4381 23.76C29.6781 25.36 31.3315 27.7334 32.3981 30.88C33.4648 33.9734 33.9981 37.76 33.9981 42.24C33.9981 45.6534 33.7848 48.8267 33.3581 51.76C32.9315 54.64 32.1048 57.1467 30.8781 59.28C29.6515 61.36 27.8915 62.9867 25.5981 64.16C23.3048 65.3334 20.3181 65.92 16.6381 65.92ZM40.3944 64.8V53.04H51.9144V64.8H40.3944Z" fill="#161A1F"/>
</svg>
