<svg width="45" height="65" viewBox="0 0 45 65" fill="none" xmlns="http://www.w3.org/2000/svg">
<path d="M9.35969 64.8V12.8C8.87969 13.0667 8.21303 13.36 7.35969 13.68C6.55969 13.9467 5.67969 14.2667 4.71969 14.64C3.75969 14.96 2.85303 15.28 1.99969 15.6C1.14636 15.8667 0.479693 16.1067 -0.000307143 16.32V7.20005C0.639693 6.88005 1.49303 6.45338 2.55969 5.92004C3.67969 5.38671 4.85303 4.80005 6.07969 4.16005C7.30636 3.52005 8.45303 2.82671 9.51969 2.08005C10.6397 1.33338 11.493 0.640045 12.0797 4.3869e-05H21.6797V64.8H9.35969ZM32.5428 64.8V53.04H44.0628V64.8H32.5428Z" fill="#161A1F"/>
</svg>
