<svg width="53" height="67" viewBox="0 0 53 67" fill="none" xmlns="http://www.w3.org/2000/svg">
<path d="M17.4386 66.8001C13.1186 66.8001 9.6786 66.0001 7.1186 64.4001C4.61193 62.7467 2.7986 60.4534 1.6786 57.5201C0.558599 54.5334 -0.00140071 51.1201 -0.00140071 47.2801V44.9601H12.3186C12.3186 45.0667 12.3186 45.3601 12.3186 45.8401C12.3186 46.2667 12.3186 46.6934 12.3186 47.1201C12.3719 49.2001 12.5319 50.9334 12.7986 52.3201C13.1186 53.6534 13.6519 54.6667 14.3986 55.3601C15.1453 56.0534 16.2119 56.4001 17.5986 56.4001C19.0386 56.4001 20.1053 56.0534 20.7986 55.3601C21.4919 54.6134 21.9719 53.5467 22.2386 52.1601C22.5053 50.7734 22.6386 49.0667 22.6386 47.0401C22.6386 43.7867 22.1586 41.2801 21.1986 39.5201C20.2386 37.7067 18.3186 36.7734 15.4386 36.7201C15.3853 36.7201 15.1186 36.7201 14.6386 36.7201C14.1586 36.7201 13.7053 36.7201 13.2786 36.7201V27.6001C13.5986 27.6001 13.9186 27.6001 14.2386 27.6001C14.6119 27.6001 14.9319 27.6001 15.1986 27.6001C18.0786 27.6001 20.0253 26.8267 21.0386 25.2801C22.1053 23.7334 22.6386 21.3067 22.6386 18.0001C22.6386 15.4401 22.2653 13.4401 21.5186 12.0001C20.7719 10.5601 19.3853 9.84005 17.3586 9.84005C15.3319 9.84005 13.9986 10.6401 13.3586 12.2401C12.7186 13.8401 12.3719 15.8934 12.3186 18.4001C12.3186 18.8267 12.3186 19.3067 12.3186 19.8401C12.3186 20.3201 12.3186 20.8001 12.3186 21.2801H-0.00140071V17.7601C-0.00140071 13.9734 0.691933 10.7734 2.0786 8.16005C3.46527 5.49338 5.4386 3.46672 7.9986 2.08005C10.5586 0.693384 13.6786 5.05447e-05 17.3586 5.05447e-05C21.0386 5.05447e-05 24.1853 0.666717 26.7986 2.00005C29.4119 3.33338 31.3853 5.28005 32.7186 7.84005C34.1053 10.4001 34.7986 13.5734 34.7986 17.3601C34.7986 21.1467 33.9986 24.2934 32.3986 26.8001C30.8519 29.3067 28.9319 30.9067 26.6386 31.6001C28.2386 32.1334 29.6519 33.0134 30.8786 34.2401C32.1053 35.4667 33.0653 37.1201 33.7586 39.2001C34.4519 41.2267 34.7986 43.7601 34.7986 46.8001C34.7986 50.6934 34.2386 54.1601 33.1186 57.2001C31.9986 60.1867 30.1586 62.5334 27.5986 64.2401C25.0386 65.9467 21.6519 66.8001 17.4386 66.8001ZM41.1874 65.6801V53.9201H52.7074V65.6801H41.1874Z" fill="#161A1F"/>
</svg>
