<svg width="18" height="15" viewBox="0 0 18 15" fill="none" xmlns="http://www.w3.org/2000/svg">
<g clip-path="url(#clip0_801_1170)">
<path d="M6 12.2727C6 11.9034 5.86806 11.5838 5.60417 11.3139C5.34028 11.044 5.02778 10.9091 4.66667 10.9091C4.30556 10.9091 3.99306 11.044 3.72917 11.3139C3.46528 11.5838 3.33333 11.9034 3.33333 12.2727C3.33333 12.642 3.46528 12.9616 3.72917 13.2315C3.99306 13.5014 4.30556 13.6364 4.66667 13.6364C5.02778 13.6364 5.34028 13.5014 5.60417 13.2315C5.86806 12.9616 6 12.642 6 12.2727ZM2 6.81818H6V4.09091H4.35417C4.26389 4.09091 4.1875 4.12287 4.125 4.18679L2.09375 6.2642C2.03125 6.32812 2 6.40625 2 6.49858V6.81818ZM15.3333 12.2727C15.3333 11.9034 15.2014 11.5838 14.9375 11.3139C14.6736 11.044 14.3611 10.9091 14 10.9091C13.6389 10.9091 13.3264 11.044 13.0625 11.3139C12.7986 11.5838 12.6667 11.9034 12.6667 12.2727C12.6667 12.642 12.7986 12.9616 13.0625 13.2315C13.3264 13.5014 13.6389 13.6364 14 13.6364C14.3611 13.6364 14.6736 13.5014 14.9375 13.2315C15.2014 12.9616 15.3333 12.642 15.3333 12.2727ZM18 0.681818V11.5909C18 11.6974 17.9861 11.7915 17.9583 11.8732C17.9306 11.9549 17.8837 12.0206 17.8177 12.0703C17.7517 12.12 17.6944 12.1609 17.6458 12.1928C17.5972 12.2248 17.5156 12.2461 17.401 12.2567C17.2865 12.2674 17.2083 12.2745 17.1667 12.2781C17.125 12.2816 17.0365 12.2816 16.901 12.2781C16.7656 12.2745 16.6875 12.2727 16.6667 12.2727C16.6667 13.0256 16.4062 13.6683 15.8854 14.201C15.3646 14.7337 14.7361 15 14 15C13.2639 15 12.6354 14.7337 12.1146 14.201C11.5938 13.6683 11.3333 13.0256 11.3333 12.2727H7.33333C7.33333 13.0256 7.07292 13.6683 6.55208 14.201C6.03125 14.7337 5.40278 15 4.66667 15C3.93056 15 3.30208 14.7337 2.78125 14.201C2.26042 13.6683 2 13.0256 2 12.2727H1.33333C1.3125 12.2727 1.23438 12.2745 1.09896 12.2781C0.963542 12.2816 0.875 12.2816 0.833333 12.2781C0.791667 12.2745 0.713542 12.2674 0.598958 12.2567C0.484375 12.2461 0.402778 12.2248 0.354167 12.1928C0.305556 12.1609 0.248264 12.12 0.182292 12.0703C0.116319 12.0206 0.0694444 11.9549 0.0416667 11.8732C0.0138889 11.7915 0 11.6974 0 11.5909C0 11.4062 0.0659722 11.2464 0.197917 11.1115C0.329861 10.9766 0.486111 10.9091 0.666667 10.9091V7.5C0.666667 7.44318 0.664931 7.31889 0.661458 7.12713C0.657986 6.93537 0.657986 6.80043 0.661458 6.7223C0.664931 6.64418 0.673611 6.52166 0.6875 6.35476C0.701389 6.18786 0.723958 6.05646 0.755208 5.96058C0.786458 5.8647 0.835069 5.75639 0.901042 5.63565C0.967014 5.51491 1.04514 5.40838 1.13542 5.31605L3.19792 3.20668C3.32986 3.07173 3.50521 2.9581 3.72396 2.86577C3.94271 2.77344 4.14583 2.72727 4.33333 2.72727H6V0.681818C6 0.497159 6.06597 0.337358 6.19792 0.202415C6.32986 0.0674716 6.48611 0 6.66667 0H17.3333C17.5139 0 17.6701 0.0674716 17.8021 0.202415C17.934 0.337358 18 0.497159 18 0.681818Z" fill="#EA571E"/>
</g>
<defs>
<clipPath id="clip0_801_1170">
<rect width="18" height="15" fill="white"/>
</clipPath>
</defs>
</svg>
