<svg width="53" height="66" viewBox="0 0 53 66" fill="none" xmlns="http://www.w3.org/2000/svg">
<path d="M0.000317931 65.6V56.88L15.7603 32.64C16.9337 30.8266 18.027 29.0933 19.0403 27.44C20.107 25.7866 20.9603 24.1066 21.6003 22.4C22.2937 20.64 22.6403 18.7733 22.6403 16.8C22.6403 14.72 22.2403 13.1466 21.4403 12.08C20.6403 10.96 19.4937 10.4 18.0003 10.4C16.4003 10.4 15.1737 10.8533 14.3203 11.76C13.467 12.6133 12.8803 13.76 12.5603 15.2C12.2403 16.64 12.0803 18.2133 12.0803 19.92V22.96H0.000317931V19.76C0.000317931 15.92 0.586985 12.5066 1.76032 9.51997C2.98698 6.53331 4.88032 4.21331 7.44032 2.55997C10.0537 0.853305 13.467 -2.86102e-05 17.6803 -2.86102e-05C23.387 -2.86102e-05 27.6803 1.4933 30.5603 4.47997C33.4403 7.46664 34.8803 11.6533 34.8803 17.04C34.8803 19.6533 34.4803 22.08 33.6803 24.32C32.8803 26.5066 31.8137 28.64 30.4803 30.72C29.2003 32.7466 27.8137 34.8533 26.3203 37.04L13.8403 55.84H33.1203V65.6H0.000317931ZM40.9491 65.6V53.84H52.4691V65.6H40.9491Z" fill="#161A1F"/>
</svg>
